<?xml version="1.0" encoding="UTF-8"?><svg id="Layer_1" xmlns="http://www.w3.org/2000/svg" viewBox="0 0 141.68 185.19"><defs><style>.cls-1{fill:#006981;}</style></defs><path class="cls-1" d="M136.25,185.19H3.06c-1.69,0-3.06-1.37-3.06-3.06V3.06C0,1.37,1.37,0,3.06,0H136.25c1.69,0,3.06,1.37,3.06,3.06v13.53c0,1.69-1.37,3.06-3.06,3.06s-3.06-1.37-3.06-3.06V6.13H6.13V179.06h127.06V94.21c0-1.69,1.37-3.06,3.06-3.06s3.06,1.37,3.06,3.06v87.92c0,1.69-1.37,3.06-3.06,3.06Z"/><path class="cls-1" d="M94.52,39.71H33.71c-1.69,0-3.06-1.37-3.06-3.06s1.37-3.06,3.06-3.06h60.81c1.69,0,3.06,1.37,3.06,3.06s-1.37,3.06-3.06,3.06Z"/><path class="cls-1" d="M91.62,70.45H20.39c-1.69,0-3.06-1.37-3.06-3.06s1.37-3.06,3.06-3.06H91.62c1.69,0,3.06,1.37,3.06,3.06s-1.37,3.06-3.06,3.06Z"/><path class="cls-1" d="M88.1,91.24H20.39c-1.69,0-3.06-1.37-3.06-3.06s1.37-3.06,3.06-3.06H88.1c1.69,0,3.06,1.37,3.06,3.06s-1.37,3.06-3.06,3.06Z"/><path class="cls-1" d="M84.58,112.02H20.39c-1.69,0-3.06-1.37-3.06-3.06s1.37-3.06,3.06-3.06H84.58c1.69,0,3.06,1.37,3.06,3.06s-1.37,3.06-3.06,3.06Z"/><path class="cls-1" d="M81.06,132.8H20.39c-1.69,0-3.06-1.37-3.06-3.06s1.37-3.06,3.06-3.06h60.67c1.69,0,3.06,1.37,3.06,3.06s-1.37,3.06-3.06,3.06Z"/><path class="cls-1" d="M112.8,163.7h-42.55c-1.69,0-3.06-1.37-3.06-3.06s1.37-3.06,3.06-3.06h42.55c1.69,0,3.06,1.37,3.06,3.06s-1.37,3.06-3.06,3.06Z"/><path class="cls-1" d="M113.71,145.25c-.17,0-.34-.02-.51-.04l-17.41-2.94c-.8-.14-1.52-.58-1.99-1.25-.47-.66-.66-1.48-.52-2.29L111.63,30.32c.49-2.89,3.25-4.85,6.12-4.35l12.97,2.2c2.89,.49,4.84,3.23,4.35,6.13l-18.35,108.4c-.25,1.5-1.55,2.55-3.02,2.55Zm-13.88-8.52l11.36,1.92,17.7-104.58-11.37-1.92-17.7,104.58Z"/><path class="cls-1" d="M101.63,163.7c-.17,0-.34-.01-.51-.04-1.2-.2-2.17-1.1-2.46-2.28l-5.33-21.4c-.25-1.01,.02-2.06,.73-2.82,.7-.76,1.73-1.1,2.76-.94l17.41,2.94c1.02,.17,1.88,.85,2.3,1.8,.41,.95,.32,2.04-.24,2.91l-12.08,18.45c-.57,.87-1.54,1.39-2.56,1.39Zm-1.22-20.66l2.5,10.05,5.67-8.66-8.17-1.38Z"/><path class="cls-1" d="M129.46,34.12c-.17,0-.34-.02-.51-.04l-12.25-2.07c-1.67-.28-2.79-1.86-2.51-3.53l.9-5.33c.41-2.44,1.75-4.58,3.77-6.02,2.02-1.43,4.48-1.99,6.92-1.58,2.44,.41,4.58,1.75,6.01,3.77,1.44,2.02,2,4.48,1.58,6.92l-.9,5.33c-.13,.8-.58,1.51-1.25,1.99-.52,.37-1.14,.57-1.77,.57Zm-8.72-7.65l6.21,1.05,.39-2.3c.14-.83-.05-1.66-.54-2.35-.49-.69-1.21-1.14-2.04-1.28-.83-.15-1.67,.05-2.35,.54-.69,.49-1.14,1.21-1.28,2.04l-.39,2.3Z"/><path class="cls-1" d="M133.15,87.52c-.17,0-.34-.02-.51-.04-1.67-.28-2.79-1.86-2.51-3.53l5.39-31.83c.23-1.36-.69-2.66-2.06-2.89l-21.3-3.61c-1.67-.28-2.79-1.86-2.51-3.53,.28-1.67,1.86-2.77,3.53-2.51l21.3,3.61c4.7,.8,7.87,5.26,7.08,9.96l-5.39,31.83c-.25,1.5-1.55,2.55-3.02,2.55Z"/><path class="cls-1" d="M128.39,58.56c-.17,0-.34-.01-.51-.04l-17.41-2.95c-1.67-.28-2.79-1.86-2.51-3.53,.28-1.67,1.85-2.76,3.53-2.51l17.41,2.95c1.67,.28,2.79,1.86,2.51,3.53-.25,1.5-1.55,2.55-3.02,2.55Z"/></svg>