<?xml version="1.0" encoding="UTF-8"?><svg id="Layer_1" xmlns="http://www.w3.org/2000/svg" viewBox="0 0 35 35"><defs><style>.cls-1,.cls-2{fill:#4377bb;}.cls-2{fill-rule:evenodd;}</style></defs><path class="cls-1" d="M17.5,35C7.85,35,0,27.15,0,17.5S7.85,0,17.5,0s17.5,7.85,17.5,17.5-7.85,17.5-17.5,17.5ZM17.5,1.88C8.89,1.88,1.88,8.89,1.88,17.5s7.01,15.62,15.62,15.62,15.62-7.01,15.62-15.62S26.11,1.88,17.5,1.88Z"/><path class="cls-2" d="M14.76,17.58v10.14c0,.15,.12,.26,.26,.26h3.77c.15,0,.26-.12,.26-.26v-10.31h2.73c.14,0,.25-.11,.26-.24l.26-3.11c.01-.15-.11-.29-.26-.29h-2.99v-2.2c0-.52,.42-.94,.94-.94h2.1c.15,0,.26-.12,.26-.26v-3.11c0-.15-.12-.26-.26-.26h-3.56c-2.09,0-3.78,1.69-3.78,3.78v2.99h-1.88c-.15,0-.26,.12-.26,.26v3.11c0,.15,.12,.26,.26,.26h1.88v.17Z"/></svg>