<?xml version="1.0" encoding="UTF-8"?><svg id="Layer_1" xmlns="http://www.w3.org/2000/svg" viewBox="0 0 179.68 165.1"><defs><style>.cls-1{fill:#006b81;}</style></defs><path class="cls-1" d="M176.73,98.99c-1.63,0-2.95-1.32-2.95-2.95v-5.9c0-1.63,1.32-2.95,2.95-2.95s2.95,1.32,2.95,2.95v5.9c0,1.63-1.32,2.95-2.95,2.95Z"/><path class="cls-1" d="M176.73,119.89c-1.63,0-2.95-1.32-2.95-2.95v-10.45c0-1.63,1.32-2.95,2.95-2.95s2.95,1.32,2.95,2.95v10.45c0,1.63-1.32,2.95-2.95,2.95Z"/><path class="cls-1" d="M176.73,136.24c-1.63,0-2.95-1.32-2.95-2.95v-5.9c0-1.63,1.32-2.95,2.95-2.95s2.95,1.32,2.95,2.95v5.9c0,1.63-1.32,2.95-2.95,2.95Z"/><path class="cls-1" d="M167.81,165.1H11.88C5.33,165.1,0,159.77,0,153.22V48.48C0,41.93,5.33,36.6,11.88,36.6H167.81c6.55,0,11.88,5.33,11.88,11.88v41.66c0,1.63-1.32,2.95-2.95,2.95s-2.95-1.32-2.95-2.95V48.48c0-3.3-2.68-5.98-5.98-5.98H11.88c-3.29,0-5.98,2.68-5.98,5.98v104.75c0,3.3,2.68,5.98,5.98,5.98H167.81c3.3,0,5.98-2.68,5.98-5.98v-19.94c0-1.63,1.32-2.95,2.95-2.95s2.95,1.32,2.95,2.95v19.94c0,6.55-5.33,11.88-11.88,11.88Z"/><path class="cls-1" d="M112.92,91.01h-46.15c-7.8,0-15.39-1.58-22.54-4.69L1.77,67.85c-1.49-.65-2.18-2.39-1.53-3.88,.65-1.5,2.39-2.18,3.88-1.53l42.45,18.47c6.41,2.79,13.2,4.2,20.19,4.2h46.15c6.99,0,13.78-1.41,20.19-4.2l42.45-18.47c1.49-.66,3.23,.03,3.88,1.53,.65,1.49-.03,3.23-1.53,3.88l-42.45,18.47c-7.16,3.11-14.74,4.69-22.54,4.69Z"/><path class="cls-1" d="M133.73,42.5H45.95c-1.63,0-2.95-1.32-2.95-2.95V8.85c0-4.88,3.97-8.85,8.85-8.85H127.83c4.88,0,8.85,3.97,8.85,8.85v30.7c0,1.63-1.32,2.95-2.95,2.95Zm-84.83-5.9h81.88V8.85c0-1.63-1.32-2.95-2.95-2.95H51.85c-1.63,0-2.95,1.32-2.95,2.95v27.75Z"/><path class="cls-1" d="M117.86,42.5H61.82c-1.63,0-2.95-1.32-2.95-2.95V19.59c0-3.25,2.65-5.9,5.9-5.9h50.14c3.25,0,5.9,2.65,5.9,5.9v19.96c0,1.63-1.32,2.95-2.95,2.95Zm-53.09-5.9h50.14V19.59h-50.14v17.01Z"/><path class="cls-1" d="M96.63,118.24h-13.57c-4.88,0-8.85-3.97-8.85-8.85v-21.33c0-1.63,1.32-2.95,2.95-2.95h25.37c1.63,0,2.95,1.32,2.95,2.95v21.33c0,4.88-3.97,8.85-8.85,8.85Zm-16.52-27.23v18.38c0,1.63,1.32,2.95,2.95,2.95h13.57c1.63,0,2.95-1.32,2.95-2.95v-18.38h-19.47Z"/><path class="cls-1" d="M101.98,104.62h-24.27c-1.63,0-2.95-1.32-2.95-2.95s1.32-2.95,2.95-2.95h24.27c1.63,0,2.95,1.32,2.95,2.95s-1.32,2.95-2.95,2.95Z"/><path class="cls-1" d="M58.83,148.81H22c-3.6,0-6.52-2.93-6.52-6.52v-40.62c0-1.63,1.32-2.95,2.95-2.95s2.95,1.32,2.95,2.95v40.62c0,.34,.28,.62,.62,.62H58.83c1.63,0,2.95,1.32,2.95,2.95s-1.32,2.95-2.95,2.95Z"/></svg>