<?xml version="1.0" encoding="UTF-8"?><svg id="Layer_1" xmlns="http://www.w3.org/2000/svg" viewBox="0 0 34.86 34.86"><defs><style>.cls-1{fill:#007bbc;}</style></defs><g><path class="cls-1" d="M17.43,34.86C7.82,34.86,0,27.04,0,17.43S7.82,0,17.43,0s17.43,7.82,17.43,17.43-7.82,17.43-17.43,17.43ZM17.43,1.88C8.85,1.88,1.88,8.85,1.88,17.43s6.98,15.55,15.55,15.55,15.55-6.98,15.55-15.55S26.01,1.88,17.43,1.88Z"/><path class="cls-1" d="M27.28,18.76v6.51c0,.16-.13,.29-.29,.29h-3.36c-.16,0-.29-.13-.29-.29v-6.05c0-1.59-.57-2.68-2-2.68-1.09,0-1.74,.73-2.02,1.44-.1,.25-.13,.61-.13,.96v6.33c0,.16-.13,.29-.29,.29h-3.36c-.16,0-.29-.13-.29-.29,0-1.61,.04-9.43,0-11.27,0-.16,.13-.29,.29-.29h3.35c.16,0,.29,.13,.29,.29v1.39s-.02,.03-.03,.04h.03v-.04c.52-.81,1.46-1.96,3.55-1.96,2.59,0,4.54,1.69,4.54,5.34h0Zm-17.86,6.8h3.36c.16,0,.29-.13,.29-.29V13.99c0-.16-.13-.29-.29-.29h-3.36c-.16,0-.29,.13-.29,.29v11.27c0,.16,.13,.29,.29,.29Z"/></g><circle class="cls-1" cx="10.98" cy="10.08" r="2.11"/></svg>