<?xml version="1.0" encoding="UTF-8"?><svg id="Layer_1" xmlns="http://www.w3.org/2000/svg" viewBox="0 0 35.38 35.38"><defs><style>.cls-1{fill:#fff;}.cls-2{fill:#ee2e2f;}</style></defs><path class="cls-2" d="M17.69,0C7.92,0,0,7.92,0,17.69c0,7.2,4.3,13.38,10.47,16.14-.02-.5-.04-.99-.03-1.49,.06-1.72,.27-2.31,2.49-11.64,.03-.14,0-.26-.05-.39-.53-1.43-.64-2.89-.17-4.36,1-3.18,4.61-3.43,5.24-.8,.39,1.62-.64,3.75-1.43,6.89-.65,2.59,2.4,4.43,5,2.54,2.4-1.74,3.34-5.92,3.16-8.89-.35-5.91-6.83-7.18-10.94-5.28-4.71,2.18-5.78,8.02-3.66,10.69,.27,.34,.48,.55,.39,.89-.14,.53-.26,1.07-.41,1.6-.11,.4-.44,.54-.84,.38-.78-.32-1.44-.82-1.97-1.47-1.81-2.24-2.32-6.66,.07-10.41,2.65-4.15,7.57-5.83,12.06-5.32,5.37,.61,8.76,4.28,9.4,8.44,.29,1.9,.08,6.57-2.58,9.87-3.06,3.8-8.02,4.05-10.31,1.72-.18-.18-.32-.39-.49-.6-.03,.09-.05,.16-.07,.23-1.1,4.31-1.22,5.26-2.35,7.26-.17,.31-.37,.6-.55,.9,1.66,.52,3.42,.79,5.25,.79,9.77,0,17.69-7.92,17.69-17.69S27.46,0,17.69,0Z"/><path class="cls-1" d="M15.35,26.43c.02-.07,.04-.15,.07-.23,.17,.21,.31,.42,.49,.6,2.29,2.33,7.25,2.08,10.31-1.72,2.66-3.3,2.87-7.98,2.58-9.87-.64-4.16-4.03-7.83-9.4-8.44-4.49-.51-9.42,1.17-12.06,5.32-2.39,3.75-1.87,8.17-.07,10.41,.53,.66,1.18,1.16,1.97,1.47,.4,.16,.73,.02,.84-.38,.15-.53,.27-1.07,.41-1.6,.09-.34-.12-.55-.39-.89-2.13-2.67-1.06-8.51,3.66-10.69,4.11-1.9,10.59-.63,10.94,5.28,.18,2.96-.76,7.14-3.16,8.89-2.61,1.89-5.66,.05-5-2.54,.79-3.14,1.82-5.26,1.43-6.89-.63-2.63-4.24-2.38-5.24,.8-.46,1.47-.36,2.93,.17,4.36,.05,.13,.08,.25,.05,.39-2.22,9.33-2.43,9.92-2.49,11.64-.02,.5,0,1,.03,1.49,.64,.29,1.29,.55,1.97,.76,.19-.3,.38-.59,.55-.9,1.13-2,1.25-2.96,2.35-7.26Z"/></svg>