<?xml version="1.0" encoding="UTF-8"?><svg id="Layer_1" xmlns="http://www.w3.org/2000/svg" viewBox="0 0 188.73 188.73"><defs><style>.cls-1{fill:#006981;}</style></defs><path class="cls-1" d="M94.37,188.73C42.33,188.73,0,146.4,0,94.37S42.33,0,94.37,0s94.37,42.33,94.37,94.37-42.33,94.37-94.37,94.37Zm0-182.37C45.84,6.36,6.36,45.84,6.36,94.37s39.48,88.01,88,88.01,88.01-39.48,88.01-88.01S142.89,6.36,94.37,6.36Z"/><path class="cls-1" d="M94.37,188.73C42.33,188.73,0,146.4,0,94.37S42.33,0,94.37,0s94.37,42.33,94.37,94.37-42.33,94.37-94.37,94.37Zm0-182.37C45.84,6.36,6.36,45.84,6.36,94.37s39.48,88.01,88,88.01,88.01-39.48,88.01-88.01S142.89,6.36,94.37,6.36Z"/><path class="cls-1" d="M94.37,188.73c-8.57,0-17.12-1.17-25.42-3.49l-1.15-.32-.66-1c-13.09-19.98-20.9-53.45-20.9-89.56S54.06,24.79,67.15,4.81l.66-1,1.15-.32c16.59-4.63,34.24-4.63,50.83,0l1.15,.32,.66,1c13.09,19.98,20.9,53.45,20.9,89.56s-7.82,69.58-20.91,89.56l-.66,1-1.15,.32c-8.3,2.32-16.85,3.49-25.41,3.49Zm-22.55-9.3c14.76,3.91,30.34,3.9,45.09,0,12.05-19.1,19.22-50.76,19.22-85.06s-7.17-65.97-19.22-85.06c-14.75-3.9-30.34-3.9-45.09,0-12.05,19.1-19.22,50.76-19.22,85.06s7.17,65.97,19.22,85.06Z"/><rect class="cls-1" x="91.19" y="3.18" width="6.36" height="182.37"/><rect class="cls-1" x="3.18" y="91.19" width="182.37" height="6.36"/><path class="cls-1" d="M94.37,142.49c-36.1,0-69.58-7.81-89.56-20.9l-1-.66-.32-1.15c-2.32-8.3-3.49-16.85-3.49-25.42s1.17-17.12,3.49-25.42l.32-1.15,1-.66c19.98-13.09,53.45-20.9,89.56-20.9s69.58,7.81,89.56,20.9l1,.66,.32,1.15c2.32,8.3,3.49,16.85,3.49,25.42s-1.17,17.12-3.49,25.42l-.32,1.15-1,.66c-19.98,13.09-53.45,20.9-89.56,20.9ZM9.3,116.91c19.1,12.05,50.76,19.22,85.06,19.22s65.97-7.17,85.06-19.22c1.95-7.38,2.94-14.96,2.94-22.55s-.99-15.17-2.94-22.55c-19.1-12.05-50.76-19.22-85.06-19.22S28.4,59.77,9.3,71.82c-1.95,7.38-2.94,14.96-2.94,22.55s.99,15.17,2.94,22.55Z"/></svg>