<?xml version="1.0" encoding="UTF-8"?><svg id="Layer_1" xmlns="http://www.w3.org/2000/svg" viewBox="0 0 35.12 35.12"><defs><style>.cls-1{fill:#fff;fill-rule:evenodd;}.cls-2{fill:#0cf;}</style></defs><path class="cls-2" d="M17.56,35.12C7.88,35.12,0,27.24,0,17.56S7.88,0,17.56,0s17.56,7.88,17.56,17.56-7.88,17.56-17.56,17.56ZM17.56,1.89C8.92,1.89,1.89,8.92,1.89,17.56s7.03,15.67,15.67,15.67,15.67-7.03,15.67-15.67S26.2,1.89,17.56,1.89Z"/><g><path class="cls-2" d="M27.65,11.15c-.65,.29-1.37,.47-2.07,.59,.33-.06,.82-.66,1.02-.9,.3-.37,.55-.8,.69-1.25,.02-.04,.03-.08,0-.11-.04-.02-.07,0-.11,0-.78,.42-1.59,.72-2.46,.94-.07,.02-.12,0-.17-.04-.07-.08-.14-.16-.21-.22-.36-.31-.75-.55-1.19-.73-.58-.23-1.2-.33-1.82-.29-.6,.04-1.2,.21-1.73,.49-.54,.28-1.02,.67-1.4,1.14-.39,.49-.69,1.06-.83,1.67-.14,.59-.13,1.17-.04,1.76,.01,.1,0,.11-.08,.1-3.37-.5-6.17-1.71-8.44-4.3-.1-.11-.15-.11-.23,0-.99,1.49-.51,3.88,.73,5.06,.17,.16,.34,.31,.52,.46-.07,.01-.89-.08-1.63-.46-.1-.06-.15-.03-.16,.09,0,.16,0,.31,.03,.48,.19,1.51,1.24,2.9,2.67,3.45,.17,.07,.36,.13,.54,.17-.33,.07-.66,.12-1.6,.05-.12-.02-.16,.04-.12,.15,.7,1.92,2.22,2.49,3.36,2.81,.15,.03,.3,.03,.46,.06,0,.01-.02,.01-.03,.03-.38,.57-1.68,1-2.29,1.21-1.11,.39-2.31,.56-3.48,.45-.19-.03-.23-.03-.28,0-.05,.03,0,.08,.05,.13,.24,.16,.48,.3,.72,.43,.74,.39,1.52,.71,2.33,.93,4.18,1.15,8.89,.31,12.03-2.81,2.47-2.45,3.33-5.83,3.33-9.21,0-.13,.16-.21,.25-.28,.64-.48,1.15-1.06,1.63-1.7,.11-.14,.1-.27,.1-.33v-.02c0-.05,0-.04-.08,0Z"/><path class="cls-1" d="M13.34,25.92s-.34,0,0,0c0,0-.05,0,0,0Z"/><path class="cls-1" d="M14.03,25.93s.36,0,0,0c0-.02,.04,0,0,0Z"/><path class="cls-1" d="M21.27,9.16s-.05,.02-.08,0h.08Z"/></g></svg>