<?xml version="1.0" encoding="UTF-8"?><svg id="Layer_1" xmlns="http://www.w3.org/2000/svg" viewBox="0 0 125.46 185.01"><defs><style>.cls-1{fill:#016b81;}</style></defs><path class="cls-1" d="M98.74,22.23H26.31c-6.13,0-11.12-4.98-11.12-11.11S20.18,0,26.31,0H98.74c6.13,0,11.12,4.99,11.12,11.12s-4.99,11.11-11.12,11.11ZM26.31,6.14c-2.75,0-4.98,2.23-4.98,4.98s2.23,4.98,4.98,4.98H98.74c2.74,0,4.98-2.23,4.98-4.98s-2.23-4.98-4.98-4.98H26.31Z"/><path class="cls-1" d="M98.74,185.01H26.31c-6.13,0-11.12-4.99-11.12-11.12s4.99-11.12,11.12-11.12H98.74c6.13,0,11.12,4.99,11.12,11.12s-4.99,11.12-11.12,11.12Zm-72.42-16.1c-2.75,0-4.98,2.23-4.98,4.98s2.23,4.98,4.98,4.98H98.74c2.74,0,4.98-2.23,4.98-4.98s-2.23-4.98-4.98-4.98H26.31Z"/><path class="cls-1" d="M98.74,168.91H26.31c-1.69,0-3.07-1.37-3.07-3.07v-19.73c0-12.31,3.62-24.22,10.48-34.44l7.94-11.83c1.46-2.18,2.23-4.72,2.23-7.33s-.77-5.16-2.23-7.34l-7.94-11.84c-6.86-10.22-10.48-22.13-10.48-34.44V19.16c0-1.7,1.37-3.07,3.07-3.07H98.74c1.7,0,3.07,1.37,3.07,3.07v19.73c0,12.31-3.62,24.22-10.48,34.44l-7.94,11.84c-1.46,2.18-2.23,4.71-2.23,7.33s.77,5.16,2.23,7.34l7.93,11.83c6.86,10.22,10.48,22.13,10.48,34.44v19.73c0,1.7-1.37,3.07-3.07,3.07Zm-69.35-6.14H95.67v-16.66c0-11.09-3.26-21.81-9.44-31.03l-7.94-11.83c-2.14-3.2-3.27-6.91-3.27-10.75s1.13-7.57,3.27-10.75l7.94-11.84c6.17-9.21,9.44-19.94,9.44-31.02V22.23H29.38v16.66c0,11.09,3.26,21.81,9.44,31.02l7.94,11.84c2.14,3.19,3.27,6.91,3.27,10.75s-1.13,7.56-3.27,10.76l-7.94,11.83c-6.17,9.21-9.44,19.94-9.44,31.03v16.66Z"/><path class="cls-1" d="M26.47,46.13c-.84,0-1.67-.34-2.27-1.01-1.13-1.25-1.04-3.19,.21-4.33,.6-.55,14.88-13.27,35.02-6.47,12.04,4.06,24.95,3.97,38.39-.25,1.62-.51,3.34,.39,3.85,2.01,.51,1.62-.39,3.34-2.01,3.85-18.32,5.76-33.06,3.3-42.2,.21-16.64-5.61-28.44,4.75-28.93,5.2-.59,.53-1.32,.79-2.06,.79Z"/><path class="cls-1" d="M77.94,141.19c-4.74,0-10.19-.63-16.25-2.33-20.12-5.65-33.14,1.5-33.27,1.58-1.47,.83-3.35,.31-4.18-1.16-.83-1.48-.31-3.35,1.16-4.18,.62-.35,15.4-8.48,37.95-2.14,19.86,5.59,32.29-1.86,32.41-1.94,1.44-.88,3.33-.44,4.22,.99,.89,1.43,.46,3.32-.97,4.21-.43,.27-8.11,4.97-21.08,4.97Z"/><path class="cls-1" d="M56.58,83.93c-1.7,0-3.07-1.37-3.07-3.07v-6.14c0-1.7,1.37-3.07,3.07-3.07s3.07,1.37,3.07,3.07v6.14c0,1.7-1.37,3.07-3.07,3.07Z"/><path class="cls-1" d="M56.58,98.92c-1.7,0-3.07-1.37-3.07-3.07v-7.49c0-1.7,1.37-3.07,3.07-3.07s3.07,1.37,3.07,3.07v7.49c0,1.7-1.37,3.07-3.07,3.07Z"/><path class="cls-1" d="M56.58,112.55c-1.7,0-3.07-1.37-3.07-3.07v-6.14c0-1.7,1.37-3.07,3.07-3.07s3.07,1.37,3.07,3.07v6.14c0,1.7-1.37,3.07-3.07,3.07Z"/><path class="cls-1" d="M68.71,83.93c-1.69,0-3.07-1.37-3.07-3.07v-6.14c0-1.7,1.37-3.07,3.07-3.07s3.07,1.37,3.07,3.07v6.14c0,1.7-1.37,3.07-3.07,3.07Z"/><path class="cls-1" d="M68.71,98.92c-1.69,0-3.07-1.37-3.07-3.07v-7.49c0-1.7,1.37-3.07,3.07-3.07s3.07,1.37,3.07,3.07v7.49c0,1.7-1.37,3.07-3.07,3.07Z"/><path class="cls-1" d="M68.71,112.55c-1.69,0-3.07-1.37-3.07-3.07v-6.14c0-1.7,1.37-3.07,3.07-3.07s3.07,1.37,3.07,3.07v6.14c0,1.7-1.37,3.07-3.07,3.07Z"/><path class="cls-1" d="M122.39,185.01H3.07c-1.7,0-3.07-1.37-3.07-3.07s1.37-3.07,3.07-3.07H122.39c1.69,0,3.07,1.37,3.07,3.07s-1.37,3.07-3.07,3.07Z"/></svg>