<?xml version="1.0" encoding="UTF-8"?><svg id="Layer_1" xmlns="http://www.w3.org/2000/svg" viewBox="0 0 154.28 184.25"><defs><style>.cls-1{fill:#006a81;}</style></defs><path class="cls-1" d="M62.71,50.12c-7.63,0-13.84-6.21-13.84-13.85s6.21-13.84,13.84-13.84,13.84,6.21,13.84,13.84-6.21,13.85-13.84,13.85Zm0-21.39c-4.16,0-7.55,3.39-7.55,7.55s3.39,7.55,7.55,7.55,7.55-3.39,7.55-7.55-3.39-7.55-7.55-7.55Z"/><path class="cls-1" d="M85.59,82.97c-1.74,0-3.15-1.41-3.15-3.15v-12.36c0-4.65-3.78-8.43-8.43-8.43h-22.61c-4.65,0-8.43,3.78-8.43,8.43v12.36c0,1.74-1.41,3.15-3.15,3.15s-3.15-1.41-3.15-3.15v-12.36c0-8.12,6.61-14.73,14.73-14.73h22.61c8.12,0,14.73,6.61,14.73,14.73v12.36c0,1.74-1.41,3.15-3.15,3.15Z"/><path class="cls-1" d="M52.85,82.97c-1.74,0-3.15-1.41-3.15-3.15v-4.43c0-1.74,1.41-3.15,3.15-3.15s3.15,1.41,3.15,3.15v4.43c0,1.74-1.41,3.15-3.15,3.15Z"/><path class="cls-1" d="M72.57,82.97c-1.74,0-3.15-1.41-3.15-3.15v-4.43c0-1.74,1.41-3.15,3.15-3.15s3.15,1.41,3.15,3.15v4.43c0,1.74-1.41,3.15-3.15,3.15Z"/><path class="cls-1" d="M104.42,94.78H20.99c-1.74,0-3.15-1.41-3.15-3.15s1.41-3.15,3.15-3.15H104.42c1.74,0,3.15,1.41,3.15,3.15s-1.41,3.15-3.15,3.15Z"/><path class="cls-1" d="M104.42,111.31H20.99c-1.74,0-3.15-1.41-3.15-3.15s1.41-3.15,3.15-3.15H104.42c1.74,0,3.15,1.41,3.15,3.15s-1.41,3.15-3.15,3.15Z"/><path class="cls-1" d="M113.66,127.84H20.99c-1.74,0-3.15-1.41-3.15-3.15s1.41-3.15,3.15-3.15H113.66c1.74,0,3.15,1.41,3.15,3.15s-1.41,3.15-3.15,3.15Z"/><path class="cls-1" d="M95.59,144.37H20.99c-1.74,0-3.15-1.41-3.15-3.15s1.41-3.15,3.15-3.15H95.59c1.74,0,3.15,1.41,3.15,3.15s-1.41,3.15-3.15,3.15Z"/><path class="cls-1" d="M93.94,160.9H20.99c-1.74,0-3.15-1.41-3.15-3.15s1.41-3.15,3.15-3.15H93.94c1.74,0,3.15,1.41,3.15,3.15s-1.41,3.15-3.15,3.15Z"/><path class="cls-1" d="M111.68,182.22H3.15c-1.74,0-3.15-1.41-3.15-3.15V14.82c0-1.74,1.41-3.15,3.15-3.15H122.27c1.74,0,3.15,1.41,3.15,3.15V123.39c0,1.74-1.41,3.15-3.15,3.15-14.18,0-25.71,11.53-25.71,25.71,0,10.61,6.39,19.99,16.28,23.9,1.41,.55,2.22,2.03,1.94,3.51-.28,1.49-1.58,2.56-3.09,2.56Zm-105.38-6.3H100.72c-6.56-5.93-10.46-14.43-10.46-23.68,0-16.59,12.68-30.26,28.86-31.85V17.97H6.3V175.92Z"/><path class="cls-1" d="M122.27,184.25c-17.65,0-32.01-14.36-32.01-32.01s14.36-32.01,32.01-32.01,32.01,14.36,32.01,32.01-14.36,32.01-32.01,32.01Zm0-57.72c-14.18,0-25.71,11.53-25.71,25.71s11.53,25.71,25.71,25.71,25.71-11.53,25.71-25.71-11.53-25.71-25.71-25.71Z"/><path class="cls-1" d="M119.37,167.39c-1.03-.01-1.96-.49-2.54-1.29l-11.22-15.35c-1.02-1.4-.72-3.37,.69-4.4,1.41-1.03,3.37-.72,4.4,.69l8.74,11.95,13.48-17.54c1.06-1.37,3.04-1.64,4.42-.58,1.38,1.06,1.64,3.04,.58,4.42l-16.03,20.88c-.6,.77-1.52,1.23-2.5,1.23Z"/><path class="cls-1" d="M135.41,129.72c-.49,0-.98-.11-1.44-.35-3.67-1.88-7.61-2.84-11.71-2.84-1.74,0-3.15-1.41-3.15-3.15V17.97H16.29c-1.74,0-3.15-1.41-3.15-3.15V3.15c0-1.74,1.41-3.15,3.15-3.15h119.12c1.74,0,3.15,1.41,3.15,3.15V126.57c0,1.1-.57,2.12-1.51,2.69-.5,.31-1.07,.46-1.64,.46Zm-9.99-9.33c2.33,.23,4.62,.71,6.84,1.45V6.3H19.44v5.38H122.27c1.74,0,3.15,1.41,3.15,3.15V120.39Z"/></svg>