<?xml version="1.0" encoding="UTF-8"?><svg id="Layer_1" xmlns="http://www.w3.org/2000/svg" viewBox="0 0 34.84 34.84"><defs><style>.cls-1{fill-rule:evenodd;}.cls-1,.cls-2{fill:#00fb73;}</style></defs><path class="cls-2" d="M17.42,34.84C7.81,34.84,0,27.03,0,17.42S7.81,0,17.42,0s17.42,7.81,17.42,17.42-7.81,17.42-17.42,17.42ZM17.42,1.87C8.85,1.87,1.87,8.85,1.87,17.42s6.98,15.55,15.55,15.55,15.55-6.98,15.55-15.55S25.99,1.87,17.42,1.87Z"/><g><path class="cls-1" d="M18.24,6.08c-5.8,0-10.52,4.72-10.52,10.52,0,2.04,.58,4,1.68,5.7l-1.6,3.52c-.15,.32-.09,.7,.14,.98,.18,.21,.43,.32,.7,.32,.08,0,.16-.01,.24-.03l4.4-1.21c1.52,.81,3.22,1.24,4.95,1.24,5.8,0,10.52-4.72,10.52-10.52s-4.72-10.52-10.52-10.52Zm0,19.2c-1.54,0-3.05-.41-4.37-1.18-.14-.08-.3-.13-.46-.13-.08,0-.16,.01-.24,.03l-2.88,.79,1-2.21c.14-.3,.1-.65-.09-.92-1.07-1.49-1.64-3.24-1.64-5.07,0-4.79,3.89-8.68,8.68-8.68s8.68,3.89,8.68,8.68-3.89,8.68-8.68,8.68Z"/><path class="cls-1" d="M22.29,18.17c-.44-.26-1.01-.56-1.53-.35-.4,.16-.65,.79-.91,1.1-.13,.16-.29,.19-.49,.11-1.49-.6-2.64-1.59-3.46-2.97-.14-.21-.11-.38,.05-.58,.25-.29,.56-.63,.63-1.02,.07-.4-.12-.86-.28-1.21-.21-.45-.44-1.09-.89-1.35-.41-.23-.96-.1-1.33,.2-.64,.52-.94,1.33-.93,2.14,0,.23,.03,.46,.08,.68,.13,.53,.37,1.03,.65,1.5,.21,.36,.43,.7,.68,1.03,.8,1.09,1.79,2.03,2.95,2.73,.58,.35,1.19,.66,1.84,.87,.72,.24,1.36,.49,2.14,.34,.81-.15,1.62-.66,1.94-1.44,.1-.23,.14-.49,.09-.74-.11-.51-.8-.81-1.21-1.05Z"/></g></svg>